<svg xmlns="http://www.w3.org/2000/svg" viewBox="0 0 30.83 35.33"><defs><style>.cls-1{fill:#fff;}</style></defs><g id="Camada_2" data-name="Camada 2"><g id="OBJECTS"><path class="cls-1" d="M11.4,17.67A17.67,17.67,0,0,1,23.37,1a17.66,17.66,0,1,0,0,33.44A17.67,17.67,0,0,1,11.4,17.67Z"/><polygon class="cls-1" points="22.93 17.28 24.19 21.16 28.27 21.16 24.97 23.56 26.23 27.45 22.93 25.05 19.62 27.45 20.88 23.56 17.58 21.16 21.66 21.16 22.93 17.28"/><polygon class="cls-1" points="26.99 5.39 27.9 8.18 30.83 8.18 28.46 9.9 29.36 12.69 26.99 10.97 24.62 12.69 25.53 9.9 23.16 8.18 26.09 8.18 26.99 5.39"/><polygon class="cls-1" points="18.58 9.71 19.28 11.84 21.51 11.84 19.7 13.15 20.39 15.28 18.58 13.97 16.77 15.28 17.46 13.15 15.65 11.84 17.89 11.84 18.58 9.71"/></g></g></svg>