<svg xmlns="http://www.w3.org/2000/svg" viewBox="0 0 66.75 49.7"><defs><style>.cls-1,.cls-2{fill:#fff;}.cls-2{stroke:#38a7c1;stroke-miterlimit:10;stroke-width:2px;}</style></defs><g id="Camada_2" data-name="Camada 2"><g id="OBJECTS"><path class="cls-1" d="M39.63,24.82A14.82,14.82,0,1,1,24.82,10,14.81,14.81,0,0,1,39.63,24.82Z"/><polygon class="cls-1" points="49.63 24.82 29.4 26.31 44.89 39.41 27.64 28.72 32.48 48.42 24.82 29.64 17.15 48.42 21.99 28.72 4.74 39.41 20.23 26.31 0 24.82 20.23 23.33 4.74 10.22 21.99 20.91 17.15 1.21 24.82 20 32.49 1.21 27.64 20.91 44.89 10.23 29.4 23.33 49.63 24.82"/><polygon class="cls-1" points="39.33 44.95 26.29 29.41 24.72 49.63 23.3 29.39 10.16 44.84 20.91 27.63 1.19 32.41 20 24.81 1.24 17.07 20.93 21.97 10.3 4.69 23.34 20.23 24.91 0 26.33 20.24 39.48 4.79 28.72 22 48.45 17.23 29.64 24.83 48.4 32.56 28.71 27.66 39.33 44.95"/><path class="cls-2" d="M65.75,39.81a8.89,8.89,0,0,0-8.88-8.89h-.39a13.73,13.73,0,0,0-26.69,0,8.89,8.89,0,0,0,0,17.77H57.2a3.29,3.29,0,0,0,.54-.05A8.88,8.88,0,0,0,65.75,39.81Z"/></g></g></svg>