<svg xmlns="http://www.w3.org/2000/svg" viewBox="0 0 47.02 40.72"><defs><style>.cls-1,.cls-2{fill:#fff;}.cls-2{stroke:#156482;stroke-miterlimit:10;}</style></defs><g id="Camada_2" data-name="Camada 2"><g id="OBJECTS"><path class="cls-1" d="M15.06,17.79A17.67,17.67,0,0,1,26.69.83a17.67,17.67,0,1,0,.67,33.44A17.68,17.68,0,0,1,15.06,17.79Z"/><path class="cls-2" d="M46.52,31.53a8.91,8.91,0,0,0-9.12-8.68H37A14,14,0,0,0,23.3,12.59,14,14,0,0,0,9.6,22.85,8.9,8.9,0,0,0,.5,31.53a8.91,8.91,0,0,0,9.12,8.69H37.74a3.41,3.41,0,0,0,.55,0A8.85,8.85,0,0,0,46.52,31.53Z"/></g></g></svg>