<svg xmlns="http://www.w3.org/2000/svg" viewBox="0 0 41.82 29.6"><defs><style>.cls-1,.cls-2{fill:#fff;}.cls-2{stroke:#38a7c1;stroke-miterlimit:10;}</style></defs><g id="Camada_2" data-name="Camada 2"><g id="OBJECTS"><path class="cls-1" d="M37.79,16.34A7.5,7.5,0,0,0,30.3,8.85H30a11.57,11.57,0,0,0-22.5,0,7.49,7.49,0,0,0,0,15H30.58a2.28,2.28,0,0,0,.45,0A7.49,7.49,0,0,0,37.79,16.34Z"/><path class="cls-2" d="M41.32,23.19a5.93,5.93,0,0,0-5.92-5.93h-.26a9.15,9.15,0,0,0-17.78,0,5.92,5.92,0,0,0,0,11.84H35.62l.36,0A5.93,5.93,0,0,0,41.32,23.19Z"/></g></g></svg>