<svg xmlns="http://www.w3.org/2000/svg" viewBox="0 0 40.3 46.65"><defs><style>.cls-1{fill:#fff;}</style></defs><g id="Camada_2" data-name="Camada 2"><g id="OBJECTS"><path class="cls-1" d="M40.3,17.43a8,8,0,0,0-8-8H32a12.35,12.35,0,0,0-24,0,8,8,0,0,0,0,16H32.62a3.88,3.88,0,0,0,.48,0A8,8,0,0,0,40.3,17.43Z"/><path class="cls-1" d="M14.93,35.45a2.77,2.77,0,1,1-4.78-2.81c.77-1.32,4.41-5.05,5.73-4.27S15.71,34.13,14.93,35.45Z"/><path class="cls-1" d="M25.32,33.9a2.78,2.78,0,1,1-4.79-2.81c.78-1.32,4.41-5.05,5.73-4.27S26.09,32.58,25.32,33.9Z"/><path class="cls-1" d="M17.5,45.28a2.77,2.77,0,1,1-4.78-2.81c.77-1.32,4.4-5,5.72-4.27S18.28,44,17.5,45.28Z"/></g></g></svg>