<svg xmlns="http://www.w3.org/2000/svg" viewBox="0 0 40.3 48.08"><defs><style>.cls-1{fill:#fff;}.cls-2{fill:none;stroke:#fff;stroke-miterlimit:10;stroke-width:2px;}</style></defs><g id="Camada_2" data-name="Camada 2"><g id="OBJECTS"><path class="cls-1" d="M40.3,17.43a8,8,0,0,0-8-8H32a12.35,12.35,0,0,0-24,0,8,8,0,0,0,0,16H32.62a3.88,3.88,0,0,0,.48,0A8,8,0,0,0,40.3,17.43Z"/><line class="cls-2" x1="12.71" y1="13.12" x2="4.79" y2="34.01"/><line class="cls-2" x1="16.99" y1="14.83" x2="5.89" y2="42.59"/><line class="cls-2" x1="21.25" y1="16.53" x2="8.81" y2="47.37"/><line class="cls-2" x1="25.53" y1="18.24" x2="14.43" y2="46"/><line class="cls-2" x1="29.8" y1="19.95" x2="18.7" y2="47.71"/><line class="cls-2" x1="34.07" y1="21.65" x2="24.62" y2="44.5"/></g></g></svg>