<svg xmlns="http://www.w3.org/2000/svg" viewBox="0 0 40.3 48.67"><defs><style>.cls-1{fill:#fff;}</style></defs><g id="Camada_2" data-name="Camada 2"><g id="OBJECTS"><path class="cls-1" d="M40.3,17.43a8,8,0,0,0-8-8H32a12.35,12.35,0,0,0-24,0,8,8,0,0,0,0,16H32.62a3.88,3.88,0,0,0,.48,0A8,8,0,0,0,40.3,17.43Z"/><polygon class="cls-1" points="25.73 22.76 12.48 34.72 11.01 31.16 29.98 32.13 32.73 32.27 30.77 34.03 14.56 48.67 29.19 32.45 29.98 34.36 11.01 35.33 6.09 35.58 9.53 31.77 21.49 18.52 25.73 22.76"/></g></g></svg>