<svg xmlns="http://www.w3.org/2000/svg" viewBox="0 0 32.11 32.07"><defs><style>.cls-1{fill:#fff;}</style></defs><g id="Camada_2" data-name="Camada 2"><g id="OBJECTS"><path class="cls-1" d="M20.67,0A.49.49,0,0,1,21,.12a.47.47,0,0,1,0,.67l-4.45,5a.36.36,0,0,1,0,.11V7.5l3.34-3.71a.48.48,0,0,1,.36-.16.47.47,0,0,1,.31.12.48.48,0,0,1,0,.67l-4,4.44L16.53,9v6l3.61-3.6a.26.26,0,0,1,.05-.12L20.46,6a.42.42,0,0,1,.42-.39.42.42,0,0,1,.42.43l-.23,4.38,1-1a.31.31,0,0,1,.05-.1l.31-5.83a.41.41,0,0,1,.41-.39.42.42,0,0,1,.42.43l-.26,5,1.84-1.84a.4.4,0,0,1,.29-.12.44.44,0,0,1,.3.12.42.42,0,0,1,0,.59L23.61,9.08l5-.26a.42.42,0,1,1,0,.83L22.78,10l-.1,0-1,1L26,10.77a.43.43,0,0,1,.44.39.42.42,0,0,1-.4.44l-5.23.28-3.7,3.68h6.09l4.47-4a.44.44,0,0,1,.32-.13.48.48,0,0,1,.35.16.47.47,0,0,1,0,.67l-3.66,3.29h1.59l.12,0,4.95-4.45a.47.47,0,0,1,.31-.12.47.47,0,0,1,.32.83l-4.21,3.78h3a.47.47,0,0,1,.47.47.48.48,0,0,1-.47.48h-3L32,20.29A.47.47,0,0,1,32,21a.52.52,0,0,1-.36.16.43.43,0,0,1-.31-.13l-4.95-4.44-.12,0H24.6l3.72,3.34a.47.47,0,0,1-.64.7l-4.44-4-.14,0h-6l3.67,3.66,5.26.29a.42.42,0,0,1,0,.84l-4.34-.23,1,1,.1.06,5.83.3a.42.42,0,0,1,0,.84l-5-.27,1.84,1.84a.42.42,0,0,1,0,.59.44.44,0,0,1-.3.12.4.4,0,0,1-.29-.12L23,23.58l.26,5a.42.42,0,0,1-.4.44.41.41,0,0,1-.43-.39l-.31-5.84a.41.41,0,0,1-.05-.09l-1-1L21.3,26a.42.42,0,0,1-.4.44.43.43,0,0,1-.44-.4l-.27-5.22a.31.31,0,0,1-.05-.12l-3.61-3.6v6l.06.14,4,4.43a.47.47,0,0,1,0,.67.47.47,0,0,1-.31.12.51.51,0,0,1-.36-.15l-3.34-3.71v1.64a.56.56,0,0,1,0,.12L21,31.27a.47.47,0,0,1,0,.67.45.45,0,0,1-.32.13.48.48,0,0,1-.35-.16l-3.79-4.2v2.95a.48.48,0,1,1-1,0V27.71l-3.79,4.2a.48.48,0,0,1-.35.16.45.45,0,0,1-.32-.13.47.47,0,0,1,0-.67l4.45-4.94a.56.56,0,0,1,0-.12V24.62l-3.29,3.66a.51.51,0,0,1-.36.15.49.49,0,0,1-.32-.12.47.47,0,0,1,0-.67l4-4.43V17.1L11.9,20.77,11.62,26a.42.42,0,0,1-.84,0L11,21.66l-1,1a.41.41,0,0,1,0,.09l-.31,5.84a.41.41,0,0,1-.41.39.43.43,0,0,1-.42-.44l.26-5L7.25,25.41a.42.42,0,0,1-.29.12.44.44,0,0,1-.3-.12.42.42,0,0,1,0-.59L8.5,23l-5,.27a.42.42,0,1,1,0-.84l5.83-.3.1-.06,1-1-4.38.23a.44.44,0,0,1-.44-.4.43.43,0,0,1,.4-.44l5.23-.27.13-.05,3.6-3.6H9l-.14,0-4.44,4a.47.47,0,1,1-.64-.7l3.72-3.34H5.86l-.12,0L.79,21a.43.43,0,0,1-.31.13A.52.52,0,0,1,.12,21a.47.47,0,0,1,0-.67l4.2-3.78h-3A.48.48,0,0,1,.93,16a.47.47,0,0,1,.47-.47h3L.16,11.78A.47.47,0,0,1,.48,11a.47.47,0,0,1,.31.12l5,4.45.11,0H7.45L3.79,12.27a.47.47,0,0,1,0-.67.48.48,0,0,1,.35-.16.45.45,0,0,1,.32.13l4.44,4H15L11.39,12l-.13-.05L6,11.63a.42.42,0,0,1,0-.83l4.4.23-1-1-.1,0L3.5,9.65a.42.42,0,0,1-.4-.44.42.42,0,0,1,.42-.39l5,.26L6.66,7.24A.42.42,0,0,1,7,6.53a.42.42,0,0,1,.29.12L9.09,8.49l-.26-5a.42.42,0,0,1,.4-.43.41.41,0,0,1,.43.39L10,9.32a.31.31,0,0,1,0,.1l1,1L10.78,6.1a.42.42,0,0,1,.4-.44.43.43,0,0,1,.44.39l.27,5.23L15.58,15V8.88l-4-4.46a.47.47,0,0,1,0-.67.49.49,0,0,1,.32-.12.48.48,0,0,1,.36.16l3.29,3.65V5.85a.36.36,0,0,1,0-.11L11.09.79a.47.47,0,0,1,0-.67A.49.49,0,0,1,11.44,0a.44.44,0,0,1,.35.16l3.79,4.2v-3a.48.48,0,0,1,1,0v3L20.32.16A.44.44,0,0,1,20.67,0Z"/></g></g></svg>